<?xml version="1.0" encoding="utf-8"?>
<!-- Generator: Adobe Illustrator 27.2.0, SVG Export Plug-In . SVG Version: 6.00 Build 0)  -->
<svg version="1.1" id="Capa_1" xmlns="http://www.w3.org/2000/svg" xmlns:xlink="http://www.w3.org/1999/xlink" x="0px" y="0px"
	 viewBox="0 0 36 36.1" style="enable-background:new 0 0 36 36.1;" xml:space="preserve">
<style type="text/css">
	.st0{clip-path:url(#SVGID_00000124136747970434287330000000072232225005958056_);}
	.st1{fill:#00837B;}
	.st2{enable-background:new    ;}
	.st3{fill:#FFFFFF;}
</style>
<g id="Grupo_8" transform="translate(-33.368 -13.667)">
	<g id="Grupo_2" transform="translate(33.368 13.667)">
		<g>
			<defs>
				<rect id="SVGID_1_" width="36" height="36.1"/>
			</defs>
			<clipPath id="SVGID_00000134212584412381723110000006293821175799295367_">
				<use xlink:href="#SVGID_1_"  style="overflow:visible;"/>
			</clipPath>
			<g id="Grupo_1" style="clip-path:url(#SVGID_00000134212584412381723110000006293821175799295367_);">
				<path id="Trazado_1" class="st1" d="M36,18c0,9.9-8.1,18-18,17.9C8,35.9,0,27.9,0,17.9C0,8,8.1,0,18,0C27.9,0,36,8.1,36,18
					C36,18,36,18,36,18"/>
			</g>
		</g>
	</g>
	<g class="st2">
		<path class="st3" d="M44.5,29.2c0-0.3-0.1-0.4-0.4-0.4h-0.7v-1.9h2.1c0.4,0,0.7,0.1,0.9,0.3c0.2,0.2,0.3,0.4,0.3,0.8v0.3
			c0,0.1,0,0.1,0,0.1s0,0.1,0,0.1c0,0,0,0.1,0,0.1h0c0.1-0.2,0.3-0.4,0.4-0.7s0.4-0.4,0.7-0.6s0.5-0.3,0.9-0.4
			c0.3-0.1,0.7-0.2,1-0.2c0.7,0,1.3,0.2,1.7,0.5s0.8,0.8,1,1.4h0c0.1-0.2,0.3-0.5,0.5-0.7s0.4-0.4,0.7-0.6s0.6-0.3,0.9-0.4
			c0.3-0.1,0.7-0.2,1-0.2c1,0,1.7,0.3,2.2,0.8s0.8,1.4,0.8,2.6v3.6c0,0.1,0,0.2,0.1,0.3s0.2,0.1,0.3,0.1h0.7V36h-2.2
			c-0.4,0-0.8-0.1-0.9-0.3s-0.3-0.5-0.3-0.9v-4.3c0-0.3,0-0.5,0-0.7s-0.1-0.4-0.2-0.6s-0.2-0.3-0.4-0.4s-0.4-0.1-0.6-0.1
			c-0.3,0-0.5,0.1-0.8,0.2s-0.5,0.3-0.6,0.5s-0.4,0.4-0.5,0.7c-0.1,0.3-0.2,0.5-0.3,0.8c-0.1,0.2-0.1,0.4-0.1,0.6s0,0.4,0,0.6v4
			h-2.3v-5.5c0-0.2,0-0.5,0-0.7c0-0.2-0.1-0.4-0.2-0.6c-0.1-0.2-0.2-0.3-0.4-0.4s-0.4-0.1-0.7-0.1c-0.3,0-0.6,0.1-0.8,0.2
			s-0.5,0.3-0.6,0.5s-0.3,0.4-0.5,0.7s-0.2,0.5-0.3,0.8c0,0.2-0.1,0.4-0.1,0.6s0,0.4,0,0.6v4h-2.3V29.2z"/>
	</g>
</g>
</svg>
