0
SECTION
2
ENTITIES
0
LINE
8
AUXI-DATA
62
1
6
CONTINUOUS
10
0
20
0
11
180
21
0
0
LINE
8
AUXI-DATA
62
1
6
CONTINUOUS
10
180
20
0
11
180
21
115
0
LINE
8
AUXI-DATA
62
1
6
CONTINUOUS
10
180
20
115
11
0
21
115
0
LINE
8
AUXI-DATA
62
1
6
CONTINUOUS
10
0
20
115
11
0
21
0
0
CIRCLE
8
CUT01
62
1
6
CONTINUOUS
10
25
20
25
40
10
0
CIRCLE
8
CUT01
62
1
6
CONTINUOUS
10
25
20
90
40
10
0
ARC
8
CUT01
62
1
6
CONTINUOUS
10
25.3
20
58.2
40
10
50
90
51
270
0
LINE
8
CUT01
62
1
6
CONTINUOUS
10
25.3
20
48.2
11
54.1
21
48.2
0
ARC
8
CUT01
62
1
6
CONTINUOUS
10
90.3
20
58.2
40
37.55583
50
195.442
51
254.517
0
LINE
8
CUT01
62
1
6
CONTINUOUS
10
80.3
20
22.1
11
80.3
21
12.1
0
LINE
8
CUT01
62
1
6
CONTINUOUS
10
80.3
20
12.1
11
100.3
21
12.1
0
LINE
8
CUT01
62
1
6
CONTINUOUS
10
100.3
20
12.1
11
100.3
21
22.1
0
ARC
8
CUT01
62
1
6
CONTINUOUS
10
90.3
20
58.2
40
37.45944
50
285.483
51
344.517
0
LINE
8
CUT01
62
1
6
CONTINUOUS
10
126.4
20
48.2
11
155.3
21
48.2
0
ARC
8
CUT01
62
1
6
CONTINUOUS
10
155.3
20
58.2
40
10
50
270
51
450
0
LINE
8
CUT01
62
1
6
CONTINUOUS
10
155.3
20
68.2
11
126.4
21
68.2
0
ARC
8
CUT01
62
1
6
CONTINUOUS
10
90.3
20
58.2
40
37.45944
50
15.483
51
74.558
0
LINE
8
CUT01
62
1
6
CONTINUOUS
10
100.3
20
94.4
11
100.3
21
104.4
0
LINE
8
CUT01
62
1
6
CONTINUOUS
10
100.3
20
104.4
11
80.3
21
104.4
0
LINE
8
CUT01
62
1
6
CONTINUOUS
10
80.3
20
104.4
11
80.3
21
94.4
0
ARC
8
CUT01
62
1
6
CONTINUOUS
10
90.3
20
58.2
40
37.55583
50
105.442
51
164.558
0
LINE
8
CUT01
62
1
6
CONTINUOUS
10
54.1
20
68.2
11
25.3
21
68.2
0
CIRCLE
8
CUT01
62
1
6
CONTINUOUS
10
155
20
90
40
10
0
CIRCLE
8
CUT01
62
1
6
CONTINUOUS
10
155
20
25
40
10
0
ARC
8
CUT01
62
1
6
CONTINUOUS
10
155
20
25
40
25
50
270
51
360
0
LINE
8
CUT01
62
1
6
CONTINUOUS
10
180
20
25
11
180
21
90
0
ARC
8
CUT01
62
1
6
CONTINUOUS
10
155
20
90
40
25
50
0
51
90
0
LINE
8
CUT01
62
1
6
CONTINUOUS
10
155
20
115
11
25
21
115
0
ARC
8
CUT01
62
1
6
CONTINUOUS
10
25
20
90
40
25
50
90
51
180
0
LINE
8
CUT01
62
1
6
CONTINUOUS
10
0
20
90
11
0
21
25
0
ARC
8
CUT01
62
1
6
CONTINUOUS
10
25
20
25
40
25
50
180
51
270
0
LINE
8
CUT01
62
1
6
CONTINUOUS
10
25
20
0
11
155
21
0
0
ENDSEC
0
EOF
