0
SECTION
2
ENTITIES
0
LINE
8
AUXI-DATA
62
1
6
CONTINUOUS
10
0
20
0
11
203.3
21
0
0
LINE
8
AUXI-DATA
62
1
6
CONTINUOUS
10
203.3
20
0
11
203.3
21
175.3
0
LINE
8
AUXI-DATA
62
1
6
CONTINUOUS
10
203.3
20
175.3
11
0
21
175.3
0
LINE
8
AUXI-DATA
62
1
6
CONTINUOUS
10
0
20
175.3
11
0
21
0
0
ARC
8
CUT01
62
1
6
CONTINUOUS
10
23.3
20
22.3
40
5.507
50
150.642
51
329.216
0
ARC
8
CUT01
62
1
6
CONTINUOUS
10
123.7
20
-35.7
40
110.479
50
119.976
51
150.024
0
ARC
8
CUT01
62
1
6
CONTINUOUS
10
65.7
20
64.7
40
5.471
50
300.784
51
479.358
0
ARC
8
CUT01
62
1
6
CONTINUOUS
10
123.7
20
-35.7
40
121.456
50
119.985
51
150.015
0
CIRCLE
8
CUT01
62
1
6
CONTINUOUS
10
113.7
20
103.8
40
4.5
0
CIRCLE
8
CUT01
62
1
6
CONTINUOUS
10
133.7
20
103.8
40
4.5
0
CIRCLE
8
CUT01
62
1
6
CONTINUOUS
10
133.7
20
124.8
40
4.5
0
CIRCLE
8
CUT01
62
1
6
CONTINUOUS
10
113.7
20
124.8
40
4.5
0
CIRCLE
8
CUT01
62
1
6
CONTINUOUS
10
113.7
20
160.3
40
4.5
0
CIRCLE
8
CUT01
62
1
6
CONTINUOUS
10
133.7
20
160.3
40
4.5
0
ARC
8
CUT01
62
1
6
CONTINUOUS
10
123.7
20
80.3
40
5.5
50
90
51
270
0
ARC
8
CUT01
62
1
6
CONTINUOUS
10
123.7
20
-35.7
40
110.5
50
59.979
51
90
0
ARC
8
CUT01
62
1
6
CONTINUOUS
10
181.7
20
64.7
40
5.42
50
240.124
51
419.744
0
ARC
8
CUT01
62
1
6
CONTINUOUS
10
123.7
20
-35.7
40
121.506
50
59.974
51
90
0
ARC
8
CUT01
62
1
6
CONTINUOUS
10
163.7
20
115
40
20
50
180
51
255.198
0
ARC
8
CUT01
62
1
6
CONTINUOUS
10
123.7
20
-35.7
40
135.956
50
54.791
51
75.126
0
ARC
8
CUT01
62
1
6
CONTINUOUS
10
200.3
20
73
40
3
50
-29.982
51
53.13
0
LINE
8
CUT01
62
1
6
CONTINUOUS
10
202.9
20
71.5
11
185.8
21
41.9
0
ARC
8
CUT01
62
1
6
CONTINUOUS
10
183.2
20
43.4
40
3.002
50
233.13
51
330.018
0
ARC
8
CUT01
62
1
6
CONTINUOUS
10
123.7
20
-35.7
40
95.98
50
53.047
51
156.99
0
ARC
8
CUT01
62
1
6
CONTINUOUS
10
32.6
20
3
40
3.046
50
240.018
51
336.801
0
LINE
8
CUT01
62
1
6
CONTINUOUS
10
31.1
20
0.4
11
1.5
21
17.5
0
ARC
8
CUT01
62
1
6
CONTINUOUS
10
3
20
20.1
40
3.002
50
154.29
51
240.018
0
ARC
8
CUT01
62
1
6
CONTINUOUS
10
123.7
20
-35.7
40
135.97
50
104.874
51
155.169
0
ARC
8
CUT01
62
1
6
CONTINUOUS
10
83.7
20
115
40
19.962
50
284.802
51
360
0
LINE
8
CUT01
62
1
6
CONTINUOUS
10
103.7
20
115
11
103.7
21
172.3
0
ARC
8
CUT01
62
1
6
CONTINUOUS
10
106.7
20
172.3
40
3
50
90
51
180
0
LINE
8
CUT01
62
1
6
CONTINUOUS
10
106.7
20
175.3
11
140.7
21
175.3
0
ARC
8
CUT01
62
1
6
CONTINUOUS
10
140.7
20
172.3
40
3
50
0
51
90
0
LINE
8
CUT01
62
1
6
CONTINUOUS
10
143.7
20
172.3
11
143.7
21
115
0
ENDSEC
0
EOF
